<svg xmlns="http://www.w3.org/2000/svg"  viewBox="0 0 64 64" width="64px" height="64px"><linearGradient id="3gZzhZsCVyeyg4wSHqbk~a" x1="32" x2="32" y1="57.89" y2="5.89" gradientTransform="matrix(1 0 0 -1 0 63.89)" gradientUnits="userSpaceOnUse"><stop offset="0" stop-color="#1a6dff"/><stop offset="1" stop-color="#c822ff"/></linearGradient><path fill="url(#3gZzhZsCVyeyg4wSHqbk~a)" d="M50.479,49.838c-0.047,0-0.095-0.003-0.142-0.01c-0.328-0.048-0.611-0.254-0.757-0.552	L32,13.278L14.42,49.276c-0.146,0.298-0.429,0.504-0.757,0.552c-0.327,0.047-0.657-0.072-0.881-0.316C8.409,44.714,6,38.495,6,32	C6,17.663,17.663,6,32,6s26,11.663,26,26c0,6.495-2.409,12.714-6.782,17.512C51.026,49.721,50.758,49.838,50.479,49.838z M32,10	c0.382,0,0.73,0.218,0.898,0.562l17.811,36.471C54.132,42.778,56,37.496,56,32C56,18.767,45.233,8,32,8S8,18.767,8,32	c0,5.496,1.868,10.778,5.291,15.032l17.811-36.471C31.27,10.218,31.618,10,32,10z M32,58c-4.079,0-7.991-0.924-11.628-2.747	c-0.493-0.247-0.693-0.847-0.446-1.341l11.18-22.359c0.34-0.678,1.449-0.678,1.789,0l11.18,22.359	c0.247,0.494,0.047,1.094-0.446,1.341C39.991,57.076,36.079,58,32,58z M22.171,53.895C25.269,55.292,28.57,56,32,56	s6.731-0.708,9.829-2.105L32,34.236L22.171,53.895z"/><linearGradient id="3gZzhZsCVyeyg4wSHqbk~b" x1="32" x2="32" y1="53.89" y2="9.828" gradientTransform="matrix(1 0 0 -1 0 63.89)" gradientUnits="userSpaceOnUse"><stop offset="0" stop-color="#6dc7ff"/><stop offset="1" stop-color="#e6abff"/></linearGradient><path fill="url(#3gZzhZsCVyeyg4wSHqbk~b)" d="M32,54.062c-2.468,0-4.827-0.605-7-1.797L32,39l7,13.266	C36.827,53.458,34.468,54.062,32,54.062z M10,32c0,3.935,1.355,7.804,3,11l16-33C20,11,10,20.224,10,32z M35,10l16,33	c1.645-3.196,3-7.065,3-11C54,20.224,44,11,35,10z"/></svg>